<svg xmlns="http://www.w3.org/2000/svg" viewBox="0 0 330 330" width="21" height="23"><path d="M245.608 84.392c-5.856-5.857-15.355-5.858-21.213-.001-5.857 5.858-5.858 15.355 0 21.213L268.789 150H85.002c-8.284 0-15 6.716-15 15s6.716 15 15 15h183.785l-44.392 44.392c-5.858 5.858-5.858 15.355 0 21.213a14.953 14.953 0 0 0 10.607 4.393 14.95 14.95 0 0 0 10.606-4.393l69.998-69.998c5.858-5.857 5.858-15.355 0-21.213l-69.998-70.002z"/><path d="M155 330c8.284 0 15-6.716 15-15s-6.716-15-15-15H40V30h115c8.284 0 15-6.716 15-15s-6.716-15-15-15H25c-8.284 0-15 6.716-15 15v300c0 8.284 6.716 15 15 15h130z"/></svg>