<svg xmlns="http://www.w3.org/2000/svg" viewBox="0 0 512.002 512.002"><path d="M510.66 331.614l-92.366-159.983c-2.762-4.783-8.877-6.423-13.66-3.66l-67.11 38.746a9.997 9.997 0 0 0-4.659 6.072 9.98 9.98 0 0 0-.176 4.329h-13.356c-11.515 0-22.777 4.682-30.9 12.845l-17.47 17.559-12.199-14.678a43.464 43.464 0 0 0-33.521-15.727h-45.93a9.995 9.995 0 0 0-.176-4.329 10 10 0 0 0-4.659-6.072l-67.11-38.746c-4.784-2.761-10.899-1.123-13.66 3.66l-22.291 38.609c-2.762 4.783-1.123 10.899 3.66 13.66 4.783 2.762 10.9 1.124 13.66-3.66l17.291-29.949 49.79 28.746L73.45 361.7l-49.79-28.746 18.557-32.142c2.762-4.783 1.123-10.899-3.66-13.66-4.781-2.761-10.898-1.123-13.66 3.66L1.34 331.614A9.997 9.997 0 0 0 5 345.274l67.11 38.746a10.005 10.005 0 0 0 7.588.999 10 10 0 0 0 6.072-4.659l.909-1.574 26.93 15.896c-.037 6.761 2.301 13.56 7.104 19.027a28.494 28.494 0 0 0 17.455 9.428c.073 6.836 2.559 13.35 7.119 18.539 4.56 5.189 10.7 8.494 17.469 9.445a28.489 28.489 0 0 0 7.104 18.521 28.497 28.497 0 0 0 17.47 9.431 28.495 28.495 0 0 0 7.104 18.538c5.648 6.428 13.562 9.714 21.513 9.714 6.53 0 13.085-2.216 18.431-6.729.144-.113.285-.231.423-.354l15.921-14.097a29.009 29.009 0 0 0 3.772 4.644l12.728 12.728c5.654 5.653 13.08 8.48 20.506 8.48s14.853-2.827 20.506-8.48c5.136-5.136 7.931-11.736 8.401-18.469 6.733-.47 13.333-3.265 18.469-8.401s7.931-11.736 8.401-18.469c6.733-.47 13.333-3.265 18.469-8.401s7.931-11.736 8.401-18.469c6.733-.47 13.333-3.265 18.469-8.401 8.381-8.381 10.543-20.657 6.499-31.054l26.975-18.267 3.912 6.775a9.997 9.997 0 0 0 13.66 3.66L507 345.275c4.783-2.762 6.422-8.878 3.66-13.661zm-216.568 157.76c-3.509 3.51-9.219 3.51-12.728 0l-12.728-12.728a8.94 8.94 0 0 1-2.636-6.364c0-2.404.936-4.664 2.636-6.364s3.96-2.636 6.364-2.636a8.94 8.94 0 0 1 6.364 2.636l12.728 12.728c3.509 3.509 3.509 9.219 0 12.728zm26.87-26.87c-3.509 3.51-9.219 3.51-12.728 0l-12.728-12.728a8.94 8.94 0 0 1-2.636-6.364c0-2.404.936-4.664 2.636-6.364s3.96-2.636 6.364-2.636a8.94 8.94 0 0 1 6.364 2.636l12.728 12.728c3.509 3.509 3.509 9.219 0 12.728zm26.87-26.871c-3.509 3.509-9.218 3.51-12.728 0l-12.728-12.728a8.94 8.94 0 0 1-2.636-6.364c0-2.404.936-4.664 2.636-6.364s3.96-2.636 6.364-2.636a8.94 8.94 0 0 1 6.364 2.636l12.728 12.728c3.509 3.51 3.509 9.22 0 12.728zm26.87-26.87c-3.509 3.51-9.218 3.509-12.727 0l-12.728-12.728c-3.509-3.509-3.509-9.219 0-12.728a8.969 8.969 0 0 1 6.364-2.632c2.304 0 4.609.877 6.364 2.631l12.728 12.729c3.508 3.51 3.508 9.219-.001 12.728zm8.302-32.709l-6.888-6.888c-11.308-11.307-29.706-11.306-41.012 0-5.136 5.136-7.931 11.736-8.401 18.469-6.733.47-13.333 3.265-18.469 8.401s-7.931 11.736-8.401 18.469c-6.733.47-13.333 3.265-18.469 8.401s-7.931 11.736-8.401 18.469c-6.733.47-13.333 3.265-18.469 8.401a28.807 28.807 0 0 0-7.473 12.934l-25.149 22.267a10.57 10.57 0 0 0-.257.218c-3.567 3.134-9.021 2.783-12.157-.786-3.135-3.568-2.783-9.022.785-12.157.34-.299 28.971-28.059 28.971-28.059 3.924-3.886 3.954-10.218.067-14.142-3.886-3.924-10.218-3.955-14.142-.067 0 0-25.896 25.678-26.062 25.869a9.998 9.998 0 0 0-2.036 1.375c-3.567 3.135-9.021 2.783-12.157-.787-3.135-3.568-2.783-9.021.785-12.156a9.976 9.976 0 0 0 2.321-3.019l27.365-27.423c3.901-3.909 3.895-10.241-.015-14.142-3.908-3.901-10.24-3.895-14.142.015l-29.055 29.116c-.472.473-.883.982-1.241 1.517a8.577 8.577 0 0 1-4.674 1.037 8.562 8.562 0 0 1-5.917-2.912 8.554 8.554 0 0 1-2.125-6.241 8.553 8.553 0 0 1 2.91-5.915c.075-.066.139-.139.211-.207.088-.082.181-.156.267-.242l31.736-31.803c3.901-3.909 3.895-10.241-.015-14.142-3.909-3.901-10.241-3.895-14.142.015l-31.403 31.469c-3.569 3.003-8.918 2.621-12.013-.901-3.135-3.568-2.783-9.022.785-12.157.29-.254 27.917-26.876 27.917-26.876 3.999-3.809 4.153-10.139.344-14.138-3.81-4-10.14-4.154-14.138-.344 0 0-29.15 28.065-29.767 28.755l-24.197-14.284 71.792-124.347h56.77a23.523 23.523 0 0 1 18.141 8.511l40.473 48.694a11.298 11.298 0 0 1 2.347 9.789 11.3 11.3 0 0 1-6.338 7.822 11.323 11.323 0 0 1-12.588-2.076l-43.397-41.121c-4.009-3.799-10.338-3.629-14.137.381-3.799 4.009-3.628 10.338.381 14.137l2.8 2.653c-7.87 15.678-24.744 25.445-42.475 24.096l-.212-.016c-5.507-.422-10.311 3.706-10.729 9.213-.419 5.507 3.706 10.311 9.213 10.729l.215.016c1.586.121 3.164.18 4.738.18 22.037 0 42.631-11.618 54.203-30.05l25.645 24.3c5.979 5.665 13.69 8.629 21.536 8.629 4.446 0 8.936-.953 13.174-2.905 8.933-4.114 15.304-11.975 17.478-21.567s-.185-19.431-6.471-26.994l-15.432-18.567 18.806-18.902c4.396-4.418 10.491-6.952 16.722-6.952h24.197l68.764 119.102-29.293 19.836zM438.55 361.7l-82.367-142.663 49.79-28.746 82.366 142.663L438.55 361.7z"/><path d="M61.469 247.471c-4.783-2.762-10.899-1.125-13.661 3.657l-.65 1.126c-2.762 4.784-1.125 10.9 3.657 13.662a9.993 9.993 0 0 0 13.661-3.658l.65-1.126c2.762-4.783 1.125-10.899-3.657-13.661zM455.07 312.934c-1.86-1.86-4.44-2.93-7.07-2.93s-5.21 1.07-7.07 2.93c-1.86 1.86-2.93 4.44-2.93 7.07s1.07 5.21 2.93 7.07c1.86 1.859 4.44 2.93 7.07 2.93s5.21-1.07 7.07-2.93c1.86-1.86 2.93-4.44 2.93-7.07s-1.07-5.21-2.93-7.07zM71.07 312.933a10.076 10.076 0 0 0-7.07-2.93c-2.63.001-5.21 1.07-7.07 2.93s-2.93 4.44-2.93 7.07 1.07 5.21 2.93 7.07 4.44 2.93 7.07 2.93 5.21-1.07 7.07-2.93 2.93-4.44 2.93-7.07-1.07-5.21-2.93-7.07zM233.44 77.933a10.072 10.072 0 0 0-7.08-2.92c-2.63 0-5.21 1.06-7.07 2.92a10.072 10.072 0 0 0-2.92 7.08c0 2.63 1.06 5.21 2.92 7.07 1.86 1.86 4.44 2.93 7.07 2.93a10.1 10.1 0 0 0 7.08-2.93c1.86-1.86 2.93-4.44 2.93-7.07a10.1 10.1 0 0 0-2.93-7.08zM295.28 77.933a10.066 10.066 0 0 0-7.07-2.92c-2.64 0-5.21 1.06-7.08 2.92a10.09 10.09 0 0 0-2.92 7.08c0 2.63 1.06 5.21 2.92 7.07a10.1 10.1 0 0 0 7.08 2.93c2.63 0 5.21-1.07 7.07-2.93 1.86-1.86 2.93-4.44 2.93-7.07a10.1 10.1 0 0 0-2.93-7.08z"/><path d="M351.36 67.516c-1.833-5.21-7.542-7.947-12.752-6.114s-7.947 7.543-6.114 12.752c3.034 8.623 4.573 17.678 4.573 26.917 0 44.701-36.366 81.067-81.067 81.067s-81.067-36.367-81.067-81.067c0-44.7 36.366-81.067 81.067-81.067 8.75 0 17.354 1.384 25.571 4.112 5.243 1.742 10.902-1.097 12.642-6.338 1.741-5.242-1.097-10.901-6.338-12.642C277.621 1.73 266.896.004 256 .004c-55.729 0-101.067 45.338-101.067 101.067 0 55.729 45.338 101.067 101.067 101.067s101.067-45.339 101.067-101.067c0-11.505-1.92-22.794-5.707-33.555z"/><path d="M328.983 31.155c-.268-.28-.539-.559-.811-.837-3.863-3.947-10.194-4.014-14.142-.152-3.947 3.863-4.015 10.194-.152 14.142.222.226.442.453.661.681a9.968 9.968 0 0 0 7.223 3.083 9.968 9.968 0 0 0 6.916-2.778c3.988-3.82 4.125-10.15.305-14.139zM283.637 121.152c-3.905-3.905-10.237-3.905-14.143 0-6.73 6.732-17.685 6.733-24.417 0-3.905-3.905-10.237-3.905-14.143 0-3.905 3.905-3.905 10.237 0 14.143 7.265 7.264 16.808 10.897 26.352 10.897 9.543 0 19.086-3.633 26.351-10.897 3.905-3.905 3.905-10.237 0-14.143zM441.169 40.004h-6.859c-5.523 0-10 4.477-10 10s4.477 10 10 10h6.859c5.523 0 10-4.477 10-10s-4.477-10-10-10zM489.69 40.004h-6.859c-5.523 0-10 4.477-10 10s4.477 10 10 10h6.859c5.523 0 10-4.477 10-10s-4.477-10-10-10zM462 60.834c-5.523 0-10 4.477-10 10v6.859c0 5.523 4.477 10 10 10s10-4.477 10-10v-6.859c0-5.523-4.477-10-10-10zM462 12.314c-5.523 0-10 4.477-10 10v6.859c0 5.523 4.477 10 10 10s10-4.477 10-10v-6.859c0-5.523-4.477-10-10-10zM16.859 118.211H10c-5.523 0-10 4.477-10 10s4.477 10 10 10h6.859c5.523 0 10-4.477 10-10s-4.477-10-10-10zM65.38 118.211h-6.859c-5.523 0-10 4.477-10 10s4.477 10 10 10h6.859c5.523 0 10-4.477 10-10s-4.477-10-10-10zM37.69 139.041c-5.523 0-10 4.477-10 10v6.859c0 5.523 4.477 10 10 10s10-4.477 10-10v-6.859c0-5.523-4.477-10-10-10zM37.69 90.521c-5.523 0-10 4.477-10 10v6.859c0 5.523 4.477 10 10 10s10-4.477 10-10v-6.859c0-5.523-4.477-10-10-10z"/></svg>